<svg aria-hidden="true" style="position:absolute;width:0;height:0;overflow:hidden" xmlns="http://www.w3.org/2000/svg">
  <defs>
    <symbol id="icon-facebook" viewBox="0 0 31 32">
      <path d="M29.324.873H1.222C.546.873 0 1.416 0 2.089v27.968c0 .673.546 1.216 1.222 1.216h28.102c.676 0 1.222-.543 1.222-1.216V2.089c0-.673-.546-1.216-1.222-1.216zm-1.222 27.968h-7.029v-9.34h3.971l.596-4.587h-4.567v-2.93c0-1.33.37-2.234 2.283-2.234h2.44V5.646c-.424-.057-1.871-.182-3.559-.182-3.52 0-5.93 2.139-5.93 6.065v3.382h-3.979v4.586h3.982v9.344H2.442V3.305H28.1v25.536z"/>
    </symbol>
    <symbol id="icon-fresh" viewBox="0 0 33 32">
      <path fill="none" stroke="#285e67" style="stroke:var(--color1, #285e67)" stroke-width="1.231" d="M31.692 16c0 8.497-6.888 15.385-15.385 15.385S.922 24.497.922 16 7.81.615 16.307.615 31.692 7.503 31.692 16z"/>
      <path fill="none" stroke="#285e67" style="stroke:var(--color1, #285e67)" stroke-linejoin="round" stroke-linecap="round" stroke-width=".923" d="M8.401 17.439h-.093v.093c.004 2.206.879 4.319 2.433 5.877s3.66 2.432 5.855 2.431h.088v-.088a8.327 8.327 0 0 0-2.428-5.88 8.262 8.262 0 0 0-5.855-2.432zM25 17.434c-2.194.003-4.297.88-5.847 2.44s-2.421 3.674-2.421 5.878v.088h.088c2.195-.003 4.298-.881 5.849-2.441s2.421-3.676 2.419-5.881v-.084H25zm-6.047-.197c.005-.08.005-.161 0-.241.148.128.312.236.489.32a2.274 2.274 0 0 0 1.771.138 2.294 2.294 0 0 0 1.33-1.183 2.29 2.29 0 0 0 .077-1.784 2.289 2.289 0 0 0-1.222-1.296l-.215-.098.215-.098c.1-.058.197-.122.289-.192a2.278 2.278 0 0 0 .433-3.183 2.25 2.25 0 0 0-3.168-.435 2.286 2.286 0 0 0-.7-1.785 2.264 2.264 0 0 0-3.134 0 2.286 2.286 0 0 0-.7 1.785 2.263 2.263 0 0 0-2.228-.41c-.568.203-1.034.624-1.294 1.172a2.294 2.294 0 0 0 1.076 3.048l.215.098-.215.098a2.274 2.274 0 0 0-.722 3.37 2.25 2.25 0 0 0 3.168.435 2.286 2.286 0 0 0 .7 1.785 2.264 2.264 0 0 0 3.134 0c.422-.405.673-.958.7-1.544zm-2.27-1.873a2.266 2.266 0 0 1-2.097-1.408 2.286 2.286 0 0 1 1.654-3.11c.44-.088.897-.043 1.312.13a2.278 2.278 0 0 1 1.402 2.107 2.277 2.277 0 0 1-2.27 2.281z"/>
    </symbol>
    <symbol id="icon-instagram" viewBox="0 0 31 32">
      <path d="M8.877.696h12.856c4.897 0 8.877 3.979 8.877 8.877v12.856a8.877 8.877 0 0 1-8.877 8.877H8.877C3.98 31.306 0 27.327 0 22.429V9.573A8.877 8.877 0 0 1 8.877.696zM8.57 3.757a5.507 5.507 0 0 0-5.51 5.51v13.468a5.506 5.506 0 0 0 5.51 5.51h13.468a5.507 5.507 0 0 0 5.51-5.51V9.267a5.506 5.506 0 0 0-5.51-5.51H8.57zm14.769 2.295a1.91 1.91 0 0 1 1.913 1.913 1.916 1.916 0 0 1-1.913 1.913 1.916 1.916 0 0 1-1.913-1.913 1.916 1.916 0 0 1 1.913-1.913zm-8.035 2.296a7.651 7.651 0 1 1 .001 15.303 7.651 7.651 0 0 1-.001-15.303zm0 3.061a4.592 4.592 0 1 0 0 9.184 4.592 4.592 0 0 0 0-9.184z"/>
    </symbol>
    <symbol id="icon-join" viewBox="0 0 32 32">
      <path d="M26.321 8.23a.354.354 0 0 0-.332-.332c-4.443-.265-7.996 1.07-9.506 3.562-1.029 1.699-.988 3.706.11 5.677a5.952 5.952 0 0 0-1.472 3.042l-2.077-2.077c.763-1.415.779-2.858.037-4.084-1.098-1.813-3.671-2.782-6.885-2.594a.352.352 0 0 0-.331.331c-.188 3.212.781 5.785 2.594 6.883a3.701 3.701 0 0 0 1.935.546 4.523 4.523 0 0 0 2.149-.584l2.494 2.497v2.682a.356.356 0 0 0 .354.354.354.354 0 0 0 .354-.354v-2.607a5.267 5.267 0 0 1 1.352-3.537c1.016.562 2.04.845 3.027.845.93 0 1.843-.257 2.636-.744 2.491-1.511 3.824-5.064 3.562-9.508zM8.825 18.034c-1.527-.923-2.364-3.122-2.269-5.917 2.795-.095 4.994.742 5.917 2.269.573.947.583 2.066.041 3.191l-2.532-2.534a.352.352 0 0 0-.487.013.355.355 0 0 0-.013.487l2.535 2.535c-1.126.542-2.245.532-3.192-.043zm13.567-.902c-1.419.859-3.102.848-4.781-.022l5.103-5.104c.064-.067.099-.156.097-.248s-.038-.18-.103-.246a.352.352 0 0 0-.493-.007l-5.104 5.104c-.87-1.68-.884-3.36-.022-4.781 1.336-2.21 4.516-3.407 8.543-3.24.168 4.027-1.033 7.208-3.239 8.544z"/>
      <path fill="none" stroke="#000" style="stroke:var(--color2, #000)" stroke-width=".78" d="M31.707 16c0 8.621-6.989 15.61-15.61 15.61S.487 24.621.487 16C.487 7.379 7.476.39 16.097.39S31.707 7.379 31.707 16z"/>
    </symbol>
    <symbol id="icon-linkedin" viewBox="0 0 32 32">
      <path d="M3.636 0A3.663 3.663 0 0 0-.001 3.637v24.727C-.001 30.352 1.647 32 3.635 32h24.727c1.988 0 3.636-1.648 3.636-3.636V3.637c0-1.988-1.648-3.636-3.636-3.636H3.635zm0 2.909h24.727c.415 0 .727.313.727.727v24.727a.71.71 0 0 1-.727.727H3.636a.71.71 0 0 1-.727-.727V3.636c0-.415.313-.727.727-.727zm4.274 2.5a2.5 2.5 0 1 0-.119 5 2.5 2.5 0 0 0 .119-5zm13.134 6.636c-2.084 0-3.471 1.142-4.044 2.227h-.092v-1.908h-4.092v13.818h4.273v-6.819c0-1.801.358-3.545 2.591-3.545 2.199 0 2.228 2.033 2.228 3.636v6.727h4.272V18.59c0-3.715-.791-6.545-5.137-6.545zm-15.226.319v13.818h4.319V12.364H5.818z"/>
    </symbol>
    <symbol id="icon-nature" viewBox="0 0 28 32">
      <path d="m27.5 30.198-1.589-1.773c.107-2.357.285-13.909-6.001-20.923C14.471 1.434 5.847.779 2.392.779 1.403.779.809.831.784.834c-.389.035-.698.379-.729.814-.04.554-.899 13.666 5.978 21.338 5.439 6.068 14.064 6.723 17.519 6.723.54 0 .957-.016 1.234-.03l1.591 1.774c.155.174.359.26.563.26s.407-.087.563-.26a.963.963 0 0 0 0-1.255zM7.157 21.73C1.716 15.66 1.542 5.45 1.61 2.567c.217-.007.48-.012.782-.012 3.257 0 11.374.605 16.393 6.203 4.824 5.381 5.507 14.014 5.553 17.912l-5.871-6.549.739-7.068c.051-.487-.262-.928-.698-.984-.44-.056-.831.292-.882.779l-.593 5.674-4.019-4.484-.621-5.247c-.058-.486-.46-.83-.893-.764-.436.064-.742.51-.685.996l.349 2.951-4.661-5.2c-.31-.347-.815-.347-1.125 0s-.311.909 0 1.255l4.66 5.199-2.644-.39c-.436-.064-.836.278-.893.764s.249.932.685.996l4.703.693 4.02 4.484-5.085.662c-.436.057-.749.497-.698.984.047.452.391.785.789.785a.726.726 0 0 0 .093-.006l6.335-.824 5.876 6.556c-3.449-.043-11.205-.784-16.061-6.201z"/>
    </symbol>
    <symbol id="icon-x" viewBox="0 0 34 32">
      <path d="m32.357 2.59 1.118-.074a1.125 1.125 0 0 0-1.395-1.008 1.122 1.122 0 0 0-.552.335l.829.746zm-1.113 6.614a1.119 1.119 0 0 0-1.117-1.117 1.119 1.119 0 0 0-1.117 1.117h2.235zM1.118 27.175v-1.118a1.115 1.115 0 0 0-1.07.793 1.12 1.12 0 0 0 .449 1.254l.621-.93zM3.348 2.59l1.048-.391a1.114 1.114 0 0 0-.989-.725 1.12 1.12 0 0 0-1.059.618l.999.498zm8.926 20.115.791.789a1.123 1.123 0 0 0 .296-1.045 1.119 1.119 0 0 0-.732-.803l-.355 1.059zm16.145-17.94-.827.751.402.445.592-.089-.168-1.106zm2.825-2.101c.114 1.739.007 2.794-.275 3.589-.273.771-.751 1.406-1.616 2.235l1.547 1.614c.979-.939 1.734-1.859 2.177-3.102.431-1.22.521-2.633.398-4.483l-2.231.147zm0 8.167V9.204h-2.235v1.629l2.235-.002zM15.622 9.387v2.143h2.235V9.387h-2.235zm0 2.143v1.117h2.235V11.53h-2.235zm7.901-10.057a7.913 7.913 0 0 0-7.304 4.887 7.899 7.899 0 0 0-.6 3.027h2.235a5.677 5.677 0 0 1 3.5-5.245 5.658 5.658 0 0 1 2.172-.433V1.474h-.002zm5.484 9.358c.002 9.646-7.804 17.461-17.43 17.461v2.235c10.862 0 19.667-8.819 19.667-19.696h-2.237zM2.302 2.982c1.216 3.245 5.775 9.666 14.438 9.666v-2.235c-7.411 0-11.329-5.498-12.346-8.213l-2.092.782zm.047-.89c-2.34 4.684-2.7 9.23-.999 13.101 1.696 3.86 5.346 6.828 10.571 8.571l.708-2.119c-4.816-1.609-7.862-4.228-9.235-7.353-1.368-3.113-1.169-6.951.954-11.204l-2-.997zm9.134 19.824c-1.345 1.348-5.391 4.141-10.366 4.141v2.235c5.735 0 10.319-3.165 11.948-4.798l-1.582-1.578zm17.765-17.9a7.698 7.698 0 0 0-5.724-2.543v2.235c1.611 0 3.062.695 4.067 1.808l1.656-1.5zm-.661 1.855a7.856 7.856 0 0 0 4.604-2.534l-1.663-1.493a5.618 5.618 0 0 1-3.276 1.817l.335 2.21zM.496 28.104c3.667 2.445 7.512 2.423 11.081 2.423v-2.235c-3.643 0-6.812-.025-9.838-2.047l-1.243 1.86z"/>
    </symbol>
    <symbol id="icon-close" viewBox="0 0 32 32">
      <path d="M16 0C7.163 0 0 7.163 0 16s7.163 16 16 16 16-7.163 16-16S24.837 0 16 0zm0 29C8.82 29 3 23.18 3 16S8.82 3 16 3s13 5.82 13 13-5.82 13-13 13z"/>
      <path d="m21 8-5 5-5-5-3 3 5 5-5 5 3 3 5-5 5 5 3-3-5-5 5-5z"/>
    </symbol>
  </defs>
</svg>
